# Blender 4.2.3 LTS
# www.blender.org
o loco_diesel
v 0.500000 0.287154 -0.140437
v -0.500000 0.287154 0.140437
v 0.500000 0.287154 0.140437
v -0.500000 0.287154 -0.140437
v 0.500000 0.086231 -0.140437
v 0.500000 0.086231 0.140437
v -0.500000 0.086231 -0.140437
v -0.500000 0.086231 0.140437
v -0.108844 0.025247 0.139606
v -0.108844 0.060824 0.150407
v -0.108844 0.025247 -0.139606
v -0.108844 0.060824 -0.150407
v 0.108844 0.025247 0.139606
v 0.108844 0.060824 0.150407
v 0.108844 0.025247 -0.139606
v 0.108844 0.060824 -0.150407
v -0.500000 0.113110 0.140437
v 0.500000 0.113110 -0.140437
v 0.500000 0.113110 0.140437
v -0.500000 0.113110 -0.140437
v -0.500000 0.137265 0.140437
v 0.500000 0.137265 -0.140437
v 0.500000 0.137265 0.140437
v -0.500000 0.137265 -0.140437
v 0.500000 0.287154 0.000000
v -0.500000 0.287154 0.000000
v -0.500000 0.086231 0.000000
v 0.500000 0.086231 0.000000
v -0.500000 0.113110 0.000000
v 0.500000 0.113110 0.000000
v -0.500000 0.137265 0.000000
v 0.500000 0.137265 0.000000
v -0.500000 0.276468 0.140437
v 0.500000 0.276468 -0.140437
v 0.500000 0.276468 0.140437
v -0.500000 0.276468 -0.140437
v -0.500000 0.204897 0.000000
v 0.500000 0.204897 0.000000
v 0.512409 0.086011 -0.150476
v 0.512409 0.086011 0.150476
v -0.512409 0.086011 -0.150476
v -0.512409 0.086011 0.150476
v 0.500000 0.086231 -0.140437
v 0.500000 0.086231 0.140437
v -0.500000 0.086231 -0.140437
v -0.500000 0.086231 0.140437
v -0.512409 0.039097 -0.150476
v -0.512409 0.039097 0.150476
v 0.512409 0.039097 -0.150476
v 0.512409 0.039097 0.150476
v -0.512409 0.086011 0.000000
v 0.512409 0.086011 0.000000
v -0.500000 0.086231 0.000000
v 0.500000 0.086231 0.000000
v -0.512409 0.039097 0.000000
v 0.512409 0.039097 0.000000
v 0.451988 0.086011 -0.150476
v -0.450157 0.086011 -0.150476
v -0.439266 0.086231 -0.140437
v 0.441033 0.086231 -0.140437
v 0.451988 0.060402 -0.150476
v -0.450157 0.060402 -0.150476
v -0.451480 0.086011 0.150476
v 0.450665 0.086011 0.150476
v 0.439741 0.086231 0.140437
v -0.440557 0.086231 0.140437
v -0.451480 0.060402 0.150476
v 0.450665 0.060402 0.150476
v 0.158503 0.009993 0.144925
v 0.158503 0.066431 0.146066
v 0.158503 0.009993 -0.144925
v 0.158503 0.066431 -0.146066
v 0.441497 0.009993 0.144925
v 0.441497 0.066431 0.146066
v 0.441497 0.009993 -0.144925
v 0.441497 0.066431 -0.146066
v -0.441497 0.009993 0.144925
v -0.441497 0.066431 0.146066
v -0.441497 0.009993 -0.144925
v -0.441497 0.066431 -0.146066
v -0.158503 0.009993 0.144925
v -0.158503 0.066431 0.146066
v -0.158503 0.009993 -0.144925
v -0.158503 0.066431 -0.146066
v 0.548647 0.051855 0.090095
v 0.510706 0.051775 0.090095
v 0.548647 0.072145 0.090095
v 0.510706 0.072225 0.090095
v 0.548647 0.051855 0.109905
v 0.510706 0.051775 0.109905
v 0.548647 0.072145 0.109905
v 0.510706 0.072225 0.109905
v 0.548647 0.051855 -0.109905
v 0.510706 0.051775 -0.109905
v 0.548647 0.072145 -0.109905
v 0.510706 0.072225 -0.109905
v 0.548647 0.051855 -0.090095
v 0.510706 0.051775 -0.090095
v 0.548647 0.072145 -0.090095
v 0.510706 0.072225 -0.090095
v 0.548647 0.041711 0.074248
v 0.548647 0.082289 0.074248
v 0.548647 0.041711 0.125752
v 0.548647 0.082289 0.125752
v 0.548647 0.041711 -0.125752
v 0.548647 0.082289 -0.125752
v 0.548647 0.041711 -0.074248
v 0.548647 0.082289 -0.074248
v 0.555979 0.041711 0.074248
v 0.555979 0.082289 0.074248
v 0.555979 0.041711 0.125752
v 0.555979 0.082289 0.125752
v 0.555979 0.041711 -0.125752
v 0.555979 0.082289 -0.125752
v 0.555979 0.041711 -0.074248
v 0.555979 0.082289 -0.074248
v -0.547628 0.051855 -0.090095
v -0.509687 0.051775 -0.090095
v -0.547628 0.072145 -0.090095
v -0.509687 0.072225 -0.090095
v -0.547628 0.051855 -0.109905
v -0.509687 0.051775 -0.109905
v -0.547628 0.072145 -0.109905
v -0.509687 0.072225 -0.109905
v -0.547628 0.051855 0.109905
v -0.509687 0.051775 0.109905
v -0.547628 0.072145 0.109905
v -0.509687 0.072225 0.109905
v -0.547628 0.051855 0.090095
v -0.509687 0.051775 0.090095
v -0.547628 0.072145 0.090095
v -0.509687 0.072225 0.090095
v -0.547628 0.041711 -0.074248
v -0.547628 0.082289 -0.074248
v -0.547628 0.041711 -0.125752
v -0.547628 0.082289 -0.125752
v -0.547628 0.041711 0.125752
v -0.547628 0.082289 0.125752
v -0.547628 0.041711 0.074248
v -0.547628 0.082289 0.074248
v -0.554960 0.041711 -0.074248
v -0.554960 0.082289 -0.074248
v -0.554960 0.041711 -0.125752
v -0.554960 0.082289 -0.125752
v -0.554960 0.041711 0.125752
v -0.554960 0.082289 0.125752
v -0.554960 0.041711 0.074248
v -0.554960 0.082289 0.074248
v -0.500000 0.287154 -0.140437
v -0.500000 0.287154 0.000000
v 0.461552 0.387387 -0.089283
v 0.461552 0.387387 0.089283
v -0.461552 0.387387 -0.089283
v -0.461552 0.387387 0.089283
v 0.500000 0.287154 -0.140437
v -0.500000 0.287154 0.140437
v 0.500000 0.287154 0.140437
v -0.500000 0.287154 -0.140437
v 0.461552 0.387387 0.000000
v -0.461552 0.387387 0.000000
v 0.500000 0.287154 0.000000
v -0.500000 0.287154 0.000000
v -0.500000 0.287154 -0.140437
v -0.500000 0.287154 0.000000
v -0.470540 0.363956 0.101241
v 0.470540 0.363956 -0.101241
v 0.470540 0.363956 0.101241
v -0.470540 0.363956 -0.101241
v 0.470540 0.363956 0.000000
v -0.470540 0.363956 0.000000
v 0.495409 0.299123 -0.134328
v 0.495409 0.299123 0.134328
v -0.495409 0.299123 -0.134328
v 0.495409 0.299123 0.000000
v -0.495409 0.299123 0.000000
v -0.495409 0.299123 0.134328
v 0.450993 0.387387 0.089283
v 0.431090 0.387387 0.089283
v 0.420500 0.387387 0.089283
v 0.366952 0.387387 0.089283
v -0.366952 0.387387 0.089283
v -0.420500 0.387387 0.089283
v -0.431090 0.387387 0.089283
v -0.450993 0.387387 0.089283
v -0.450993 0.387387 -0.089283
v -0.431090 0.387387 -0.089283
v -0.420500 0.387387 -0.089283
v -0.366952 0.387387 -0.089283
v 0.366952 0.387387 -0.089283
v 0.420500 0.387387 -0.089283
v 0.431090 0.387387 -0.089283
v 0.450993 0.387387 -0.089283
v -0.488561 0.287154 -0.140437
v -0.467000 0.287154 -0.140437
v -0.455528 0.287154 -0.140437
v -0.397519 0.287154 -0.140437
v 0.397519 0.287154 -0.140437
v 0.455528 0.287154 -0.140437
v 0.467000 0.287154 -0.140437
v 0.488561 0.287154 -0.140437
v 0.488561 0.287154 0.140437
v 0.467000 0.287154 0.140437
v 0.455528 0.287154 0.140437
v 0.397519 0.287154 0.140437
v -0.397519 0.287154 0.140437
v -0.455528 0.287154 0.140437
v -0.467000 0.287154 0.140437
v -0.488561 0.287154 0.140437
v -0.459776 0.363956 -0.101241
v -0.439485 0.363956 -0.101241
v -0.428689 0.363956 -0.101241
v -0.374097 0.363956 -0.101241
v 0.374097 0.363956 -0.101241
v 0.428689 0.363956 -0.101241
v 0.439485 0.363956 -0.101241
v 0.459776 0.363956 -0.101241
v 0.459776 0.363956 0.101241
v 0.439485 0.363956 0.101241
v 0.428689 0.363956 0.101241
v 0.374097 0.363956 0.101241
v -0.374097 0.363956 0.101241
v -0.428689 0.363956 0.101241
v -0.439485 0.363956 0.101241
v -0.459776 0.363956 0.101241
v 0.484075 0.299123 0.134328
v 0.462712 0.299123 0.134328
v 0.451345 0.299123 0.134328
v 0.393869 0.299123 0.134328
v -0.393869 0.299123 0.134328
v -0.451345 0.299123 0.134328
v -0.462712 0.299123 0.134328
v -0.484075 0.299123 0.134328
v -0.484075 0.299123 -0.134328
v -0.462712 0.299123 -0.134328
v -0.451345 0.299123 -0.134328
v -0.393869 0.299123 -0.134328
v 0.393869 0.299123 -0.134328
v 0.451345 0.299123 -0.134328
v 0.462712 0.299123 -0.134328
v 0.484075 0.299123 -0.134328
v 0.461552 0.387387 -0.089283
v 0.461552 0.387387 0.089283
v -0.461552 0.387387 -0.089283
v -0.461552 0.387387 0.089283
v 0.461552 0.387387 0.000000
v -0.461552 0.387387 0.000000
v 0.450993 0.387387 0.089283
v 0.431090 0.387387 0.089283
v 0.420500 0.387387 0.089283
v 0.366952 0.387387 0.089283
v -0.366952 0.387387 0.089283
v -0.420500 0.387387 0.089283
v -0.431090 0.387387 0.089283
v -0.450993 0.387387 0.089283
v -0.450993 0.387387 -0.089283
v -0.431090 0.387387 -0.089283
v -0.420500 0.387387 -0.089283
v -0.366952 0.387387 -0.089283
v 0.366952 0.387387 -0.089283
v 0.420500 0.387387 -0.089283
v 0.431090 0.387387 -0.089283
v 0.450993 0.387387 -0.089283
v 0.461552 0.387387 0.004464
v 0.500000 0.287154 0.007022
v 0.470540 0.363956 0.005062
v 0.495409 0.299123 0.006716
v 0.461552 0.387387 -0.004464
v 0.500000 0.287154 -0.007022
v 0.470540 0.363956 -0.005062
v 0.495409 0.299123 -0.006716
v -0.461552 0.387387 -0.004464
v -0.500000 0.287154 -0.007022
v -0.495409 0.299123 -0.006716
v -0.470540 0.363956 -0.005062
v -0.461552 0.387387 0.004464
v -0.500000 0.287154 0.007022
v -0.470540 0.363956 0.005062
v -0.495409 0.299123 0.006716
v -0.498837 0.177524 0.035399
v -0.498837 0.199497 0.035399
v -0.498837 0.177524 -0.035399
v -0.498837 0.199497 -0.035399
v -0.506169 0.177524 0.035399
v -0.506169 0.199497 0.035399
v -0.506169 0.177524 -0.035399
v -0.506169 0.199497 -0.035399
v 0.497438 0.177524 -0.035399
v 0.497438 0.199497 -0.035399
v 0.497438 0.177524 0.035399
v 0.497438 0.199497 0.035399
v 0.504770 0.177524 -0.035399
v 0.504770 0.199497 -0.035399
v 0.504770 0.177524 0.035399
v 0.504770 0.199497 0.035399
vn -0.0000 1.0000 -0.0000
vn -0.0000 -0.0000 -1.0000
vn 1.0000 -0.0000 -0.0000
vn -1.0000 -0.0000 -0.0000
vn -0.0000 -0.0000 1.0000
vn -0.0000 -0.2905 -0.9569
vn -0.0000 -0.2905 0.9569
vn -0.0000 0.9998 0.0219
vn -0.0177 0.9998 -0.0000
vn 0.0177 0.9998 -0.0000
vn -0.0000 0.9998 -0.0219
vn -0.0000 -0.0202 -0.9998
vn -0.0000 -0.0202 0.9998
vn 0.0021 1.0000 -0.0000
vn -0.0021 1.0000 -0.0000
vn -0.0000 0.4546 0.8907
vn 0.9337 0.3581 -0.0000
vn -0.0000 0.4546 -0.8907
vn -0.9337 0.3581 -0.0000
vn -0.0000 -1.0000 -0.0000
vt 0.541274 0.250000
vt 0.541274 0.125000
vt 0.389205 0.881921
vt 0.378891 0.876500
vt 0.126471 0.874039
vt 0.625500 0.866657
vt 0.389240 0.849431
vt 0.134282 0.871578
vt 0.634386 0.876500
vt 0.866657 0.846970
vt 0.896186 0.864196
vt 0.886343 0.869117
vt 0.551272 0.250000
vt 0.115459 0.638455
vt 0.551272 0.125000
vt 0.896686 0.864196
s 0
f 4/1/1 26/2/1 150/2/1 149/1/1
f 36/3/2 4/3/2 1/3/2 34/3/2
f 38/3/3 25/3/3 3/3/3 35/3/3
f 37/3/4 26/3/4 4/3/4 36/3/4
f 35/4/5 3/4/5 2/4/5 33/4/5
f 28/5/3 30/5/3 19/5/3 6/5/3
f 9/6/4 10/6/4 12/6/4 11/6/4
f 11/6/6 12/6/6 16/6/6 15/6/6
f 15/6/3 16/6/3 14/6/3 13/6/3
f 13/6/7 14/6/7 10/6/7 9/6/7
f 6/5/5 19/5/5 17/5/5 8/5/5
f 27/5/4 29/5/4 20/5/4 7/5/4
f 7/5/2 20/5/2 18/5/2 5/5/2
f 19/7/5 23/7/5 21/7/5 17/7/5
f 29/7/4 31/7/4 24/7/4 20/7/4
f 30/7/3 32/7/3 23/7/3 19/7/3
f 20/7/2 24/7/2 22/7/2 18/7/2
f 18/7/3 22/7/3 32/7/3 30/7/3
f 17/7/4 21/7/4 31/7/4 29/7/4
f 8/5/4 17/5/4 29/5/4 27/5/4
f 5/5/3 18/5/3 30/5/3 28/5/3
f 33/3/4 2/3/4 26/3/4 37/3/4
f 34/3/3 1/3/3 25/3/3 38/3/3
f 22/8/3 34/8/3 38/8/3 32/8/3
f 21/8/4 33/8/4 37/8/4 31/8/4
f 23/8/5 35/8/5 33/8/5 21/8/5
f 31/8/4 37/8/4 36/8/4 24/8/4
f 32/8/3 38/8/3 35/8/3 23/8/3
f 24/8/2 36/8/2 34/8/2 22/8/2
f 63/6/5 42/6/5 48/6/5 67/6/5
f 63/9/8 66/9/8 46/9/8 42/9/8
f 51/9/9 53/9/9 45/9/9 41/9/9
f 52/9/10 54/9/10 44/9/10 40/9/10
f 57/9/11 60/9/11 43/9/11 39/9/11
f 51/6/4 41/6/4 47/6/4 55/6/4
f 52/6/3 40/6/3 50/6/3 56/6/3
f 57/6/2 39/6/2 49/6/2 61/6/2
f 39/6/3 52/6/3 56/6/3 49/6/3
f 42/6/4 51/6/4 55/6/4 48/6/4
f 39/9/10 43/9/10 54/9/10 52/9/10
f 42/9/9 46/9/9 53/9/9 51/9/9
f 41/6/2 58/6/2 62/6/2 47/6/2
f 58/6/2 57/6/2 61/6/2 62/6/2
f 41/9/11 45/9/11 59/9/11 58/9/11
f 58/9/11 59/9/11 60/9/11 57/9/11
f 40/9/8 44/9/8 65/9/8 64/9/8
f 64/9/8 65/9/8 66/9/8 63/9/8
f 40/6/5 64/6/5 68/6/5 50/6/5
f 64/6/5 63/6/5 67/6/5 68/6/5
f 69/10/4 70/10/4 72/10/4 71/10/4
f 71/10/12 72/10/12 76/10/12 75/10/12
f 75/10/3 76/10/3 74/10/3 73/10/3
f 73/10/13 74/10/13 70/10/13 69/10/13
f 77/10/4 78/10/4 80/10/4 79/10/4
f 79/10/12 80/10/12 84/10/12 83/10/12
f 83/10/3 84/10/3 82/10/3 81/10/3
f 81/10/13 82/10/13 78/10/13 77/10/13
f 85/11/2 86/11/2 88/11/2 87/11/2
f 87/11/14 88/11/14 92/11/14 91/11/14
f 91/11/5 92/11/5 90/11/5 89/11/5
f 93/11/2 94/11/2 96/11/2 95/11/2
f 95/11/14 96/11/14 100/11/14 99/11/14
f 99/11/5 100/11/5 98/11/5 97/11/5
f 87/11/4 91/11/4 104/11/4 102/11/4
f 97/11/4 93/11/4 105/11/4 107/11/4
f 85/11/4 87/11/4 102/11/4 101/11/4
f 91/11/4 89/11/4 103/11/4 104/11/4
f 95/11/4 99/11/4 108/11/4 106/11/4
f 93/11/4 95/11/4 106/11/4 105/11/4
f 89/11/4 85/11/4 101/11/4 103/11/4
f 99/11/4 97/11/4 107/11/4 108/11/4
f 105/11/2 106/11/2 114/11/2 113/11/2
f 104/11/5 103/11/5 111/11/5 112/11/5
f 101/11/2 102/11/2 110/11/2 109/11/2
f 106/11/1 108/11/1 116/11/1 114/11/1
f 102/11/1 104/11/1 112/11/1 110/11/1
f 108/11/5 107/11/5 115/11/5 116/11/5
f 109/11/3 110/11/3 112/11/3 111/11/3
f 113/11/3 114/11/3 116/11/3 115/11/3
f 117/12/5 118/12/5 120/12/5 119/12/5
f 119/12/15 120/12/15 124/12/15 123/12/15
f 123/12/2 124/12/2 122/12/2 121/12/2
f 125/12/5 126/12/5 128/12/5 127/12/5
f 127/12/15 128/12/15 132/12/15 131/12/15
f 131/12/2 132/12/2 130/12/2 129/12/2
f 119/12/3 123/12/3 136/12/3 134/12/3
f 129/12/3 125/12/3 137/12/3 139/12/3
f 117/12/3 119/12/3 134/12/3 133/12/3
f 123/12/3 121/12/3 135/12/3 136/12/3
f 127/12/3 131/12/3 140/12/3 138/12/3
f 125/12/3 127/12/3 138/12/3 137/12/3
f 121/12/3 117/12/3 133/12/3 135/12/3
f 131/12/3 129/12/3 139/12/3 140/12/3
f 137/12/5 138/12/5 146/12/5 145/12/5
f 136/12/2 135/12/2 143/12/2 144/12/2
f 133/12/5 134/12/5 142/12/5 141/12/5
f 138/12/1 140/12/1 148/12/1 146/12/1
f 134/12/1 136/12/1 144/12/1 142/12/1
f 140/12/2 139/12/2 147/12/2 148/12/2
f 141/12/4 142/12/4 144/12/4 143/12/4
f 145/12/4 146/12/4 148/12/4 147/12/4
f 224/4/16 184/4/16 154/4/16 165/4/16
f 265/4/17 263/4/17 152/4/17 167/4/17
f 216/4/18 192/4/18 151/4/18 166/4/18
f 269/4/17 267/4/17 159/4/17 169/4/17
f 277/4/19 275/4/19 160/4/19 170/4/19
f 274/4/19 271/4/19 153/4/19 168/4/19
f 173/13/1 158/1/1 163/1/1
f 273/14/19 274/14/19 168/14/19 173/14/19
f 278/4/19 277/4/19 170/4/19 175/4/19
f 240/4/18 216/4/18 166/4/18 171/4/18
f 232/4/16 224/4/16 165/4/16 176/4/16
f 208/4/16 232/4/16 176/4/16 156/4/16
f 264/4/17 266/4/17 172/4/17 157/4/17
f 200/4/18 240/4/18 171/4/18 155/4/18
f 268/4/17 270/4/17 174/4/17 161/4/17
f 276/4/19 278/4/19 175/4/19 162/4/19
f 272/4/19 273/4/19 173/4/19 163/4/19
f 162/2/1 175/15/1 164/2/1
f 158/4/18 173/4/18 233/4/18 193/4/18
f 193/4/18 233/4/18 234/4/18 194/4/18
f 194/4/18 234/4/18 235/4/18 195/4/18
f 195/4/18 235/4/18 236/4/18 196/4/18
f 196/4/18 236/4/18 237/4/18 197/4/18
f 197/4/18 237/4/18 238/4/18 198/4/18
f 198/4/18 238/4/18 239/4/18 199/4/18
f 199/4/18 239/4/18 240/4/18 200/4/18
f 157/4/16 172/4/16 225/4/16 201/4/16
f 201/4/16 225/4/16 226/4/16 202/4/16
f 202/4/16 226/4/16 227/4/16 203/4/16
f 203/4/16 227/4/16 228/4/16 204/4/16
f 204/4/16 228/4/16 229/4/16 205/4/16
f 205/4/16 229/4/16 230/4/16 206/4/16
f 206/4/16 230/4/16 231/4/16 207/4/16
f 207/4/16 231/4/16 232/4/16 208/4/16
f 172/4/16 167/4/16 217/4/16 225/4/16
f 225/14/16 217/14/16 218/14/16 226/14/16
f 226/4/16 218/4/16 219/4/16 227/4/16
f 227/14/16 219/14/16 220/14/16 228/14/16
f 228/4/16 220/4/16 221/4/16 229/4/16
f 229/14/16 221/14/16 222/14/16 230/14/16
f 230/4/16 222/4/16 223/4/16 231/4/16
f 231/14/16 223/14/16 224/14/16 232/14/16
f 173/4/18 168/4/18 209/4/18 233/4/18
f 233/14/18 209/14/18 210/14/18 234/14/18
f 234/4/18 210/4/18 211/4/18 235/4/18
f 235/14/18 211/14/18 212/14/18 236/14/18
f 236/4/18 212/4/18 213/4/18 237/4/18
f 237/14/18 213/14/18 214/14/18 238/14/18
f 238/4/18 214/4/18 215/4/18 239/4/18
f 239/14/18 215/14/18 216/14/18 240/14/18
f 168/4/18 153/4/18 185/4/18 209/4/18
f 209/4/18 185/4/18 186/4/18 210/4/18
f 210/4/18 186/4/18 187/4/18 211/4/18
f 211/4/18 187/4/18 188/4/18 212/4/18
f 212/4/18 188/4/18 189/4/18 213/4/18
f 213/4/18 189/4/18 190/4/18 214/4/18
f 214/4/18 190/4/18 191/4/18 215/4/18
f 215/4/18 191/4/18 192/4/18 216/4/18
f 167/4/16 152/4/16 177/4/16 217/4/16
f 217/4/16 177/4/16 178/4/16 218/4/16
f 218/4/16 178/4/16 179/4/16 219/4/16
f 219/4/16 179/4/16 180/4/16 220/4/16
f 220/4/16 180/4/16 181/4/16 221/4/16
f 221/4/16 181/4/16 182/4/16 222/4/16
f 222/4/16 182/4/16 183/4/16 223/4/16
f 223/4/16 183/4/16 184/4/16 224/4/16
f 246/4/1 244/4/1 254/4/1 253/4/1 252/4/1 251/4/1 250/4/1 249/4/1 248/4/1 247/4/1 242/4/1 245/4/1 241/4/1 262/4/1 261/4/1 260/4/1 259/4/1 258/4/1 257/4/1 256/4/1 255/4/1 243/4/1
f 270/4/17 269/4/17 169/4/17 174/4/17
f 266/14/17 265/14/17 167/14/17 172/14/17
f 174/4/17 169/4/17 265/4/17 266/4/17
f 161/4/17 174/4/17 266/4/17 264/4/17
f 169/4/17 159/4/17 263/4/17 265/4/17
f 171/14/17 166/14/17 269/14/17 270/14/17
f 155/4/17 171/4/17 270/4/17 268/4/17
f 166/4/17 151/4/17 267/4/17 269/4/17
f 164/4/19 175/4/19 273/4/19 272/4/19
f 175/4/19 170/4/19 274/4/19 273/4/19
f 170/4/19 160/4/19 271/4/19 274/4/19
f 156/4/19 176/4/19 278/4/19 276/4/19
f 176/14/19 165/14/19 277/14/19 278/14/19
f 165/4/19 154/4/19 275/4/19 277/4/19
f 279/16/5 280/16/5 284/16/5 283/16/5
f 281/16/20 279/16/20 283/16/20 285/16/20
f 280/16/1 282/16/1 286/16/1 284/16/1
f 282/16/2 281/16/2 285/16/2 286/16/2
f 283/16/4 284/16/4 286/16/4 285/16/4
f 287/16/2 288/16/2 292/16/2 291/16/2
f 289/16/20 287/16/20 291/16/20 293/16/20
f 288/16/1 290/16/1 294/16/1 292/16/1
f 290/16/5 289/16/5 293/16/5 294/16/5
f 291/16/3 292/16/3 294/16/3 293/16/3
