# Blender 4.4.3
# www.blender.org
o tree
v -0.115598 0.011622 0.077160
v -0.037539 3.437595 0.248926
v 0.115598 0.011622 0.077160
v 0.037539 3.437595 0.248926
v 0.115598 -0.004871 -0.155458
v 0.037539 3.462898 0.176471
v -0.094346 1.257383 0.104471
v -0.071856 2.493514 0.162648
v 0.071856 2.507004 0.019567
v 0.094346 1.243922 -0.085381
v 0.071856 2.493514 0.162648
v 0.094346 1.257383 0.104471
v -0.055921 1.863569 0.113776
v -0.014677 2.266248 1.559711
v 0.055921 1.756692 0.146731
v 0.014677 2.238197 1.568360
v 0.055921 1.863569 0.113776
v 0.014677 2.266248 1.559711
v 0.015042 2.893967 0.180361
v 0.740694 3.137351 0.736990
v 0.111940 2.787090 0.115511
v 0.774035 3.100575 0.714676
v 0.086618 2.893967 0.094422
v 0.765322 3.137351 0.707419
v 0.005561 1.217656 -0.059008
v 0.226666 1.428531 -0.706177
v -0.005093 1.324533 -0.027824
v 0.216012 1.535408 -0.674993
v -0.110929 1.324533 -0.063983
v 0.110176 1.535408 -0.711152
v 0.201867 1.415231 -0.642647
v 0.926235 1.718905 -1.111816
v 0.173482 1.522108 -0.625905
v 0.916184 1.756749 -1.105888
v 0.116663 1.522108 -0.722240
v 0.896065 1.756749 -1.140000
v 0.219089 1.522108 -0.707409
v -0.528650 1.768814 -1.171699
v 0.130053 1.415231 -0.632127
v -0.580278 1.706840 -1.128046
v 0.157576 1.522108 -0.614002
v -0.564319 1.768814 -1.117536
v 0.120759 2.264101 -0.066367
v -0.777812 2.503173 -0.006218
v 0.090734 2.157224 0.046297
v -0.788143 2.466398 0.032549
v 0.123677 2.264101 0.045437
v -0.776808 2.503173 0.032253
v -0.050147 3.369067 0.181717
v 0.483282 4.110919 0.578089
v 0.087545 3.297618 0.150837
v 0.530660 4.086333 0.567464
v 0.021420 3.369058 0.095769
v 0.507907 4.110915 0.548515
v -0.027051 3.324792 0.121490
v -0.626871 3.773472 0.138322
v -0.035526 3.325821 0.279428
v -0.629786 3.773825 0.192668
v 0.016103 3.388582 0.202590
v -0.612022 3.795421 0.166228
v -0.222452 3.951763 0.828094
v 0.376671 2.869922 1.018680
v 0.697911 4.327604 0.068274
v 1.297034 3.245764 0.258860
v 0.233138 3.317829 -1.013033
v -0.648085 4.053906 -0.515755
v 1.004436 3.604361 -0.070351
v 0.123213 4.340439 0.426927
v -0.637208 3.681747 -0.920132
v -1.346420 3.239969 0.011265
v -0.001147 4.383883 -0.102769
v -0.710358 3.942105 0.828629
v -1.298785 3.673139 0.168997
v -1.143505 3.060038 1.248647
v -0.122801 4.094766 0.239289
v 0.032481 3.481665 1.318939
v -0.676203 2.530639 0.654990
v -0.384627 2.102540 1.794009
v 0.345708 3.252618 0.664747
v 0.637285 2.824519 1.803765
v 0.197985 2.529764 1.870826
v 0.251558 1.375694 1.390304
v 0.566908 3.003902 0.773220
v 0.620482 1.849833 0.292697
v -0.854853 2.967413 -0.806546
v -1.167707 1.794000 -0.505094
v -1.305351 3.369104 0.289514
v -1.618205 2.195691 0.590966
v -1.353510 3.071030 0.272788
v -1.434481 1.822510 0.255710
v -0.352234 2.995881 1.019414
v -0.433206 1.747361 1.002336
v -0.428204 2.572742 -1.471897
v -0.358437 1.400551 -1.904044
v -0.762896 2.138207 -0.347260
v -0.693130 0.966016 -0.779405
v 0.118005 2.830378 -1.632674
v -0.959355 2.253606 -1.363830
v 0.078593 3.418470 -0.528934
v -0.998768 2.841699 -0.260089
v 0.987832 2.636712 -1.224050
v 1.183593 1.557344 -1.825956
v -0.239980 2.397453 -1.194324
v -0.044220 1.318085 -1.796230
v -0.149820 3.633925 -0.591627
v 0.376132 3.279582 0.487014
v 0.477345 2.733674 -1.193177
v 1.003298 2.379330 -0.114537
v 0.852571 2.117819 -0.014026
v 1.494734 1.292215 -0.700796
v 0.879490 2.930132 -0.965379
v 1.521654 2.104529 -1.652150
vn 0.9994 0.0353 0.0064
vn -0.0000 -0.0910 0.9959
vn -0.0000 -0.0219 0.9998
vn -0.0000 -0.0470 0.9989
vn 0.9999 0.0171 -0.0012
vn 0.9998 0.0180 -0.0000
vn -0.0000 0.9633 -0.2683
vn 0.9996 0.0081 0.0263
vn -0.1978 0.9663 -0.1647
vn 0.6680 0.0114 -0.7441
vn 0.9463 -0.0000 0.3233
vn -0.0953 0.9556 0.2788
vn 0.5401 0.0116 0.8415
vn -0.2211 0.9665 0.1304
vn 0.2255 0.9629 0.1485
vn -0.5703 0.0076 0.8214
vn 0.2567 0.9665 -0.0067
vn -0.0116 0.0116 0.9999
vn -0.5727 0.6667 -0.4770
vn 0.6575 0.0283 -0.7529
vn 0.4219 0.5899 -0.6885
vn 0.3462 0.5991 0.7220
vn 0.4793 0.4028 0.7798
vn 0.3522 0.7756 -0.5239
vn -0.6483 0.7486 -0.1386
vn -0.3183 0.8040 0.5023
vn -0.5279 0.7416 0.4139
vn 0.9546 -0.0757 0.2882
vn -0.8988 0.1323 -0.4179
vn -0.5962 0.0277 0.8023
vn -0.9619 0.0423 -0.2699
vn -0.5076 0.7527 -0.4192
vn -0.1125 0.4683 -0.8764
vn 0.7564 0.6342 -0.1605
vn 0.8580 0.3784 0.3474
vt 0.066402 0.935559
vt 0.500000 0.000000
vt 1.000000 0.000000
vt 1.000000 0.500000
vt 0.500000 0.500000
s 0
f 9/1/1 6/1/1 4/1/1 11/1/1
f 11/1/2 4/1/2 2/1/2 8/1/2
f 3/1/3 12/1/3 7/1/3 1/1/3
f 12/1/4 11/1/4 8/1/4 7/1/4
f 5/1/5 10/1/5 12/1/5 3/1/5
f 10/1/6 9/1/6 11/1/6 12/1/6
f 13/1/7 14/1/7 18/1/7 17/1/7
f 17/1/8 18/1/8 16/1/8 15/1/8
f 19/1/9 20/1/9 24/1/9 23/1/9
f 23/1/10 24/1/10 22/1/10 21/1/10
f 25/1/11 26/1/11 28/1/11 27/1/11
f 27/1/12 28/1/12 30/1/12 29/1/12
f 31/1/13 32/1/13 34/1/13 33/1/13
f 33/1/14 34/1/14 36/1/14 35/1/14
f 37/1/15 38/1/15 42/1/15 41/1/15
f 41/1/16 42/1/16 40/1/16 39/1/16
f 43/1/17 44/1/17 48/1/17 47/1/17
f 47/1/18 48/1/18 46/1/18 45/1/18
f 49/1/19 50/1/19 54/1/19 53/1/19
f 53/1/20 54/1/20 52/1/20 51/1/20
f 55/1/21 56/1/21 60/1/21 59/1/21
f 59/1/22 60/1/22 58/1/22 57/1/22
f 61/2/23 62/3/23 64/4/23 63/5/23
f 65/2/24 66/3/24 68/4/24 67/5/24
f 69/2/25 70/3/25 72/4/25 71/5/25
f 73/2/26 74/3/26 76/4/26 75/5/26
f 77/2/27 78/3/27 80/4/27 79/5/27
f 81/2/28 82/3/28 84/4/28 83/5/28
f 85/2/29 86/3/29 88/4/29 87/5/29
f 89/2/30 90/3/30 92/4/30 91/5/30
f 93/2/31 94/3/31 96/4/31 95/5/31
f 97/2/32 98/3/32 100/4/32 99/5/32
f 101/2/33 102/3/33 104/4/33 103/5/33
f 105/2/34 106/3/34 108/4/34 107/5/34
f 109/2/35 110/3/35 112/4/35 111/5/35
