# Blender 4.2.3 LTS
# www.blender.org
o tree
v -0.023120 0.002324 0.015432
v -0.007508 0.687519 0.049785
v -0.023120 -0.000974 -0.031092
v -0.007508 0.692580 0.035294
v 0.023120 0.002324 0.015432
v 0.007508 0.687519 0.049785
v 0.023120 -0.000974 -0.031092
v 0.007508 0.692580 0.035294
v -0.018869 0.251477 0.020894
v -0.014371 0.498703 0.032530
v -0.014371 0.501401 0.003913
v -0.018869 0.248784 -0.017076
v 0.014371 0.501401 0.003913
v 0.018869 0.248784 -0.017076
v 0.014371 0.498703 0.032530
v 0.018869 0.251477 0.020894
v -0.011184 0.351338 0.029346
v -0.002935 0.447639 0.313672
v -0.011184 0.372714 0.022755
v -0.002935 0.453249 0.311942
v 0.011184 0.351338 0.029346
v 0.002935 0.447639 0.313672
v 0.011184 0.372714 0.022755
v 0.002935 0.453249 0.311942
v 0.008073 0.557418 0.040290
v 0.149881 0.620115 0.148849
v 0.003008 0.578793 0.036072
v 0.148139 0.627470 0.147398
v 0.022388 0.557418 0.023102
v 0.154807 0.620115 0.142935
v 0.017324 0.578793 0.018884
v 0.153064 0.627470 0.141484
v 0.001112 0.243531 -0.011802
v 0.045333 0.285706 -0.141236
v -0.001019 0.264907 -0.005565
v 0.043202 0.307082 -0.134999
v -0.020055 0.243531 -0.019033
v 0.024166 0.285706 -0.148467
v -0.022186 0.264907 -0.012797
v 0.022035 0.307082 -0.142230
v 0.040373 0.283046 -0.128529
v 0.185247 0.343781 -0.222363
v 0.034696 0.304422 -0.125181
v 0.183237 0.351350 -0.221178
v 0.029010 0.283046 -0.147796
v 0.181223 0.343781 -0.229186
v 0.023333 0.304422 -0.144448
v 0.179213 0.351350 -0.228000
v 0.038313 0.283046 -0.145107
v -0.108922 0.341368 -0.236442
v 0.043818 0.304422 -0.141482
v -0.105730 0.353763 -0.234340
v 0.026011 0.283046 -0.126425
v -0.116056 0.341368 -0.225609
v 0.031515 0.304422 -0.122800
v -0.112864 0.353763 -0.223507
v 0.017563 0.431445 -0.013101
v -0.157829 0.493280 -0.001184
v 0.024152 0.452820 -0.013273
v -0.155562 0.500635 -0.001244
v 0.018147 0.431445 0.009259
v -0.157629 0.493280 0.006510
v 0.024735 0.452820 0.009087
v -0.155362 0.500635 0.006451
v 0.003196 0.659525 0.047357
v 0.101207 0.817267 0.119407
v -0.010029 0.673813 0.036343
v 0.096656 0.822184 0.115618
v 0.017509 0.659524 0.030167
v 0.106132 0.817267 0.113493
v 0.004284 0.673812 0.019154
v 0.101581 0.822183 0.109703
v -0.015736 0.652406 0.039666
v -0.128927 0.750375 0.032952
v -0.005410 0.664958 0.024298
v -0.125374 0.754694 0.027664
v -0.007105 0.665164 0.055886
v -0.125957 0.754765 0.038534
v 0.003221 0.677716 0.040518
v -0.122404 0.759084 0.033246
v 0.003915 0.916655 0.207984
v 0.201210 0.762705 0.207984
v 0.003915 0.916655 -0.042268
v 0.201210 0.762705 -0.042268
v -0.037072 0.796362 0.176186
v 0.056570 0.564291 0.176186
v 0.158346 0.875215 0.041205
v 0.251989 0.643143 0.041205
v -0.013060 0.868662 -0.133177
v -0.142312 0.756570 0.049457
v 0.160645 0.938753 0.032774
v 0.031393 0.826661 0.215409
v 0.028199 0.646601 -0.189159
v -0.130634 0.814961 -0.094013
v 0.201904 0.716692 -0.023208
v 0.043071 0.885052 0.071938
v -0.090497 0.690332 -0.164593
v -0.243761 0.626681 0.022716
v -0.025752 0.898089 -0.041016
v -0.179016 0.834438 0.146292
v -0.253134 0.743273 0.028223
v -0.188207 0.551775 0.175664
v -0.065054 0.879185 0.121923
v -0.000127 0.687688 0.269365
v -0.164058 0.546611 0.153591
v -0.105743 0.460992 0.381395
v 0.040324 0.691007 0.155542
v 0.098640 0.605388 0.383346
v -0.072043 0.341148 0.358128
v 0.177547 0.323066 0.356142
v -0.053921 0.590683 0.363622
v 0.195669 0.572600 0.361635
v 0.135952 0.492314 0.417664
v 0.146667 0.261500 0.321560
v 0.209737 0.587142 0.198143
v 0.220451 0.356328 0.102038
v 0.014392 0.651125 0.385254
v 0.228913 0.523375 0.402174
v 0.055132 0.687187 0.140989
v 0.269654 0.559437 0.157908
v 0.219373 0.556277 0.220152
v 0.230088 0.325463 0.124047
v 0.069352 0.627293 0.032865
v 0.080066 0.396479 -0.063239
v 0.025270 0.670391 -0.075558
v 0.035985 0.439577 -0.171662
v -0.224726 0.659095 -0.076300
v -0.214011 0.428281 -0.172405
v -0.170971 0.593483 -0.161309
v -0.233541 0.358800 -0.101019
v -0.261070 0.673821 0.057903
v -0.323641 0.439138 0.118193
v -0.224598 0.656221 -0.003043
v -0.337527 0.477135 0.130377
v -0.024343 0.641192 0.146283
v -0.137272 0.462105 0.279703
v -0.274537 0.555072 0.053749
v -0.290731 0.305368 0.050333
v -0.074282 0.540042 0.203074
v -0.090476 0.290338 0.199658
v 0.078943 0.450406 -0.109842
v 0.089658 0.219592 -0.205947
v -0.071078 0.521423 -0.297129
v -0.060363 0.290609 -0.393233
v -0.058398 0.522673 -0.298718
v -0.047683 0.291859 -0.394822
v -0.262246 0.458912 -0.168309
v -0.251532 0.228098 -0.264414
v -0.192765 0.399489 -0.279116
v -0.143206 0.161020 -0.221651
v -0.144697 0.466420 -0.042820
v -0.095138 0.227951 0.014645
v 0.009525 0.526688 -0.356296
v -0.225497 0.469348 -0.292245
v 0.057594 0.593619 -0.120000
v -0.177429 0.536279 -0.055949
v 0.189081 0.510242 -0.241269
v 0.199796 0.279428 -0.337374
v -0.034312 0.458205 -0.141200
v -0.023598 0.227391 -0.237304
v 0.271979 0.543248 -0.083771
v 0.328631 0.300964 -0.110506
v 0.142779 0.536676 -0.297991
v 0.199430 0.294392 -0.324726
v 0.043069 0.516294 -0.023278
v 0.092087 0.275725 0.025196
v 0.270036 0.541939 -0.125524
v 0.319055 0.301370 -0.077050
v -0.008062 0.545318 -0.226241
v 0.097128 0.474449 -0.010513
v 0.218905 0.570962 -0.328487
v 0.324096 0.500094 -0.112759
v -0.029964 0.726785 -0.118325
v 0.075226 0.655916 0.097403
v 0.095469 0.546735 -0.238635
v 0.200660 0.475866 -0.022907
v 0.121784 0.605103 0.316838
v 0.132498 0.374289 0.220733
v -0.028238 0.676119 0.129551
v -0.017523 0.445305 0.033447
v 0.013830 0.510736 0.304812
v 0.218361 0.372308 0.345195
v 0.135469 0.638728 0.127476
v 0.340000 0.500300 0.167858
v -0.165959 0.692407 -0.134176
v -0.161247 0.476354 -0.007983
v 0.007759 0.786068 0.019693
v 0.012471 0.570015 0.145886
v -0.026310 0.793187 -0.078033
v -0.031980 0.566871 0.028620
v 0.201003 0.833091 0.018727
v 0.195333 0.606774 0.125379
v 0.170514 0.423564 -0.002805
v 0.298947 0.258443 -0.140159
v 0.175898 0.586026 -0.193076
v 0.304331 0.420906 -0.330430
v -0.256530 0.577958 0.194885
v -0.153697 0.380942 0.079837
v -0.109137 0.731652 0.063433
v -0.006304 0.534636 -0.051615
vn -0.9994 0.0353 0.0064
vn -0.0000 0.1620 -0.9868
vn 0.9994 0.0353 0.0064
vn -0.0000 -0.0910 0.9959
vn -0.0000 0.9441 0.3297
vn -0.0000 -0.0219 0.9998
vn -0.0000 -0.0470 0.9989
vn 0.9999 0.0171 -0.0012
vn 0.9998 0.0180 -0.0000
vn -0.0000 0.0560 -0.9984
vn -0.0000 0.0828 -0.9966
vn -0.9999 0.0171 -0.0012
vn -0.9998 0.0180 -0.0000
vn -0.9996 0.0081 0.0263
vn -0.0000 0.9633 -0.2683
vn 0.9996 0.0081 0.0263
vn -0.0000 -0.9471 0.3208
vn -0.6110 0.0114 0.7915
vn -0.0000 0.2946 0.9556
vn -0.1978 0.9663 -0.1647
vn 0.6680 0.0114 -0.7441
vn 0.2547 -0.9435 0.2121
vn 0.7343 0.2946 0.6116
vn 0.9463 -0.0000 0.3233
vn -0.0953 0.9556 0.2788
vn -0.9463 -0.0000 -0.3233
vn 0.0953 -0.9556 -0.2788
vn 0.3089 0.2946 -0.9043
vn 0.5401 0.0116 0.8415
vn -0.2211 0.9665 0.1304
vn -0.4751 0.0116 -0.8799
vn 0.2861 -0.9432 -0.1688
vn 0.8231 0.2946 -0.4855
vn 0.5293 0.0076 -0.8484
vn 0.2255 0.9629 0.1485
vn -0.5703 0.0076 0.8214
vn -0.2665 -0.9477 -0.1755
vn -0.7981 0.2946 -0.5256
vn -0.0637 0.0116 -0.9979
vn 0.2567 0.9665 -0.0067
vn -0.0116 0.0116 0.9999
vn -0.3320 -0.9433 0.0087
vn -0.9553 0.2947 0.0249
vn -0.6214 0.0284 0.7830
vn -0.5727 0.6667 -0.4770
vn 0.6575 0.0283 -0.7529
vn 0.6089 -0.6100 0.5071
vn 0.4909 0.7694 0.4087
vn -0.4245 -0.5403 -0.7265
vn 0.4219 0.5899 -0.6885
vn 0.3462 0.5991 0.7220
vn -0.5002 -0.5311 0.6839
vn -0.7988 0.5998 -0.0468
vn 0.6152 0.7884 -0.0000
vn 0.5002 0.2018 0.8421
vn -0.5014 0.8491 0.1662
vn 0.3396 0.6848 -0.6447
vn -0.7470 0.4961 -0.4426
vn -0.6065 0.3457 0.7160
vn -0.5279 0.7416 0.4139
vn 0.0063 -0.0225 0.9997
vn 0.9546 -0.0757 0.2882
vn 0.4885 0.8477 0.2066
vn 0.7992 0.2623 -0.5408
vn -0.0146 0.3838 -0.9233
vn -0.8988 0.1323 -0.4179
vn -0.3950 0.6959 0.5998
vn -0.5962 0.0277 0.8023
vn -0.5785 0.2905 -0.7622
vn -0.9612 -0.1429 0.2360
vn -0.2848 0.9359 -0.2072
vn -0.4487 0.3257 -0.8322
vn 0.8260 0.2489 -0.5058
vn 0.3729 0.2557 0.8919
vn 0.0274 0.9536 0.2999
vn 0.7564 0.6342 -0.1605
vn 0.3095 0.6576 0.6869
vn -0.7196 0.3385 0.6064
vn -0.4176 0.3959 0.8178
vn 0.8580 0.3784 0.3474
vn 0.6959 -0.0549 0.7161
vt 0.066402 0.935559
vt 0.500000 0.000000
vt 1.000000 0.000000
vt 1.000000 0.500000
vt 0.500000 0.500000
s 0
f 10/1/1 2/1/1 4/1/1 11/1/1
f 11/1/2 4/1/2 8/1/2 13/1/2
f 13/1/3 8/1/3 6/1/3 15/1/3
f 15/1/4 6/1/4 2/1/4 10/1/4
f 8/1/5 4/1/5 2/1/5 6/1/5
f 5/1/6 16/1/6 9/1/6 1/1/6
f 16/1/7 15/1/7 10/1/7 9/1/7
f 7/1/8 14/1/8 16/1/8 5/1/8
f 14/1/9 13/1/9 15/1/9 16/1/9
f 3/1/10 12/1/10 14/1/10 7/1/10
f 12/1/11 11/1/11 13/1/11 14/1/11
f 1/1/12 9/1/12 12/1/12 3/1/12
f 9/1/13 10/1/13 11/1/13 12/1/13
f 17/1/14 18/1/14 20/1/14 19/1/14
f 19/1/15 20/1/15 24/1/15 23/1/15
f 23/1/16 24/1/16 22/1/16 21/1/16
f 21/1/17 22/1/17 18/1/17 17/1/17
f 25/1/18 26/1/18 28/1/18 27/1/18
f 24/1/19 20/1/19 18/1/19 22/1/19
f 27/1/20 28/1/20 32/1/20 31/1/20
f 31/1/21 32/1/21 30/1/21 29/1/21
f 29/1/22 30/1/22 26/1/22 25/1/22
f 32/1/23 28/1/23 26/1/23 30/1/23
f 33/1/24 34/1/24 36/1/24 35/1/24
f 35/1/25 36/1/25 40/1/25 39/1/25
f 39/1/26 40/1/26 38/1/26 37/1/26
f 37/1/27 38/1/27 34/1/27 33/1/27
f 40/1/28 36/1/28 34/1/28 38/1/28
f 41/1/29 42/1/29 44/1/29 43/1/29
f 43/1/30 44/1/30 48/1/30 47/1/30
f 47/1/31 48/1/31 46/1/31 45/1/31
f 45/1/32 46/1/32 42/1/32 41/1/32
f 48/1/33 44/1/33 42/1/33 46/1/33
f 49/1/34 50/1/34 52/1/34 51/1/34
f 51/1/35 52/1/35 56/1/35 55/1/35
f 55/1/36 56/1/36 54/1/36 53/1/36
f 53/1/37 54/1/37 50/1/37 49/1/37
f 56/1/38 52/1/38 50/1/38 54/1/38
f 57/1/39 58/1/39 60/1/39 59/1/39
f 59/1/40 60/1/40 64/1/40 63/1/40
f 63/1/41 64/1/41 62/1/41 61/1/41
f 61/1/42 62/1/42 58/1/42 57/1/42
f 64/1/43 60/1/43 58/1/43 62/1/43
f 65/1/44 66/1/44 68/1/44 67/1/44
f 67/1/45 68/1/45 72/1/45 71/1/45
f 71/1/46 72/1/46 70/1/46 69/1/46
f 69/1/47 70/1/47 66/1/47 65/1/47
f 72/1/48 68/1/48 66/1/48 70/1/48
f 73/1/49 74/1/49 76/1/49 75/1/49
f 75/1/50 76/1/50 80/1/50 79/1/50
f 79/1/51 80/1/51 78/1/51 77/1/51
f 77/1/52 78/1/52 74/1/52 73/1/52
f 80/1/53 76/1/53 74/1/53 78/1/53
f 81/2/54 82/3/54 84/4/54 83/5/54
f 85/2/55 86/3/55 88/4/55 87/5/55
f 89/2/56 90/3/56 92/4/56 91/5/56
f 93/2/57 94/3/57 96/4/57 95/5/57
f 97/2/58 98/3/58 100/4/58 99/5/58
f 101/2/59 102/3/59 104/4/59 103/5/59
f 105/2/60 106/3/60 108/4/60 107/5/60
f 109/2/61 110/3/61 112/4/61 111/5/61
f 113/2/62 114/3/62 116/4/62 115/5/62
f 117/2/63 118/3/63 120/4/63 119/5/63
f 121/2/64 122/3/64 124/4/64 123/5/64
f 125/2/65 126/3/65 128/4/65 127/5/65
f 129/2/66 130/3/66 132/4/66 131/5/66
f 133/2/67 134/3/67 136/4/67 135/5/67
f 137/2/68 138/3/68 140/4/68 139/5/68
f 141/2/64 142/3/64 144/4/64 143/5/64
f 145/2/69 146/3/69 148/4/69 147/5/69
f 149/2/70 150/3/70 152/4/70 151/5/70
f 153/2/71 154/3/71 156/4/71 155/5/71
f 157/2/72 158/3/72 160/4/72 159/5/72
f 161/2/73 162/3/73 164/4/73 163/5/73
f 165/2/74 166/3/74 168/4/74 167/5/74
f 169/2/75 170/3/75 172/4/75 171/5/75
f 173/2/76 174/3/76 176/4/76 175/5/76
f 177/2/64 178/3/64 180/4/64 179/5/64
f 181/2/77 182/3/77 184/4/77 183/5/77
f 185/2/78 186/3/78 188/4/78 187/5/78
f 189/2/79 190/3/79 192/4/79 191/5/79
f 193/2/80 194/3/80 196/4/80 195/5/80
f 197/2/81 198/3/81 200/4/81 199/5/81
